<svg width="103" height="43" viewBox="0 0 103 43" fill="none" xmlns="http://www.w3.org/2000/svg">
<path d="M13.08 20.616C12.184 20.616 11.264 20.48 10.32 20.208C9.376 19.952 8.48 19.568 7.632 19.056C6.8 18.544 6.08 17.936 5.472 17.232C4.192 18.512 2.976 19.152 1.824 19.152C1.232 19.152 0.792 18.976 0.504 18.624C0.216 18.288 0.072 17.848 0.072 17.304C0.072 16.296 0.456 15.112 1.224 13.752C1.944 12.472 2.52 11.8 2.952 11.736C3.272 11.736 3.6 12.064 3.936 12.72L5.448 15.648C6.296 14.512 7.184 13.288 8.112 11.976C6.8 11.384 6.144 10.528 6.144 9.408C6.144 8.928 6.256 8.488 6.48 8.088C6.72 7.672 7.024 7.336 7.392 7.08C7.76 6.824 8.136 6.696 8.52 6.696C9.048 6.696 9.432 6.944 9.672 7.44C9.704 7.488 9.704 7.536 9.672 7.584C9.656 7.632 9.632 7.648 9.6 7.632C9.488 7.504 9.328 7.392 9.12 7.296C8.912 7.2 8.72 7.152 8.544 7.152C8.208 7.152 7.896 7.288 7.608 7.56C7.336 7.816 7.12 8.12 6.96 8.472C6.816 8.824 6.76 9.136 6.792 9.408C6.792 10.224 7.368 10.936 8.52 11.544C8.792 11.144 9.088 10.712 9.408 10.248C9.728 9.768 10.072 9.256 10.44 8.712C13.624 4.04 16.272 1.704 18.384 1.704C19.872 1.704 20.616 2.4 20.616 3.792C20.616 5.056 20 6.544 18.768 8.256C18.16 9.104 17.392 9.864 16.464 10.536C15.536 11.208 14.552 11.744 13.512 12.144C12.488 12.528 11.496 12.72 10.536 12.72C10.312 12.72 10.088 12.712 9.864 12.696C9.656 12.664 9.464 12.616 9.288 12.552C8.872 13.096 8.392 13.704 7.848 14.376C7.304 15.048 6.704 15.792 6.048 16.608C6.336 17.008 6.744 17.408 7.272 17.808C7.816 18.208 8.424 18.56 9.096 18.864C9.768 19.184 10.432 19.44 11.088 19.632C11.744 19.824 12.336 19.92 12.864 19.92C13.472 19.92 14.032 19.848 14.544 19.704C15.056 19.576 15.472 19.36 15.792 19.056C16.112 18.768 16.272 18.384 16.272 17.904C16.272 17.84 16.272 17.776 16.272 17.712C16.272 17.648 16.264 17.584 16.248 17.52C16.248 17.488 16.24 17.464 16.224 17.448C16.224 17.432 16.224 17.416 16.224 17.4C16.224 17.24 16.272 17.16 16.368 17.16C16.528 17.16 16.656 17.288 16.752 17.544C16.848 17.784 16.896 17.976 16.896 18.12C16.896 18.616 16.704 19.048 16.32 19.416C15.936 19.8 15.448 20.096 14.856 20.304C14.28 20.512 13.688 20.616 13.08 20.616ZM10.368 12.096C11.184 12.096 12.056 11.912 12.984 11.544C13.912 11.16 14.784 10.664 15.6 10.056C16.432 9.432 17.104 8.76 17.616 8.04C19.072 6.008 19.8 4.464 19.8 3.408C19.8 2.96 19.672 2.632 19.416 2.424C19.16 2.216 18.848 2.112 18.48 2.112C17.68 2.112 16.688 2.784 15.504 4.128C15.136 4.56 14.648 5.184 14.04 6C13.448 6.8 12.744 7.792 11.928 8.976C11.608 9.44 11.256 9.928 10.872 10.44C10.488 10.952 10.088 11.48 9.672 12.024C9.896 12.072 10.128 12.096 10.368 12.096ZM1.872 18.504C2.176 18.504 2.512 18.392 2.88 18.168C3.264 17.96 3.632 17.696 3.984 17.376C4.336 17.056 4.624 16.744 4.848 16.44C4.624 16.12 4.384 15.736 4.128 15.288C3.872 14.84 3.592 14.32 3.288 13.728C2.92 12.96 2.64 12.616 2.448 12.696C2.16 12.744 1.848 13.256 1.512 14.232C1.176 15.208 1.008 16.12 1.008 16.968C1.008 17.992 1.296 18.504 1.872 18.504ZM16.9249 18.264C16.2049 18.264 15.8449 17.808 15.8449 16.896C15.8449 16.544 15.9489 16.128 16.1569 15.648C16.3809 15.152 16.6929 14.632 17.0929 14.088C17.0929 14.088 16.9489 14.224 16.6609 14.496C16.3729 14.768 16.0449 15.112 15.6769 15.528C15.6129 15.592 15.5329 15.624 15.4369 15.624C15.3729 15.624 15.3409 15.584 15.3409 15.504C15.3409 15.424 15.4129 15.288 15.5569 15.096L18.8689 11.208C19.2849 10.728 19.7409 10.488 20.2369 10.488C20.6049 10.488 20.7889 10.632 20.7889 10.92C20.7889 11.032 20.7409 11.136 20.6449 11.232C20.3409 11.52 19.9649 11.928 19.5169 12.456C19.0849 12.984 18.6609 13.552 18.2449 14.16C17.8289 14.768 17.4769 15.352 17.1889 15.912C16.9169 16.456 16.7809 16.896 16.7809 17.232C16.7809 17.52 16.8769 17.664 17.0689 17.664C17.1809 17.664 17.3569 17.624 17.5969 17.544C17.8369 17.448 18.1569 17.264 18.5569 16.992C18.9569 16.704 19.4369 16.264 19.9969 15.672C20.0929 15.576 20.3489 15.288 20.7649 14.808C21.1809 14.328 21.7409 13.64 22.4449 12.744C23.6929 11.192 24.5089 10.416 24.8929 10.416C25.4209 10.416 25.7089 10.632 25.7569 11.064C25.7889 11.208 25.4529 11.68 24.7489 12.48C23.8369 13.584 23.2129 14.376 22.8769 14.856C22.2529 15.768 21.9409 16.48 21.9409 16.992C21.9409 17.344 22.0609 17.52 22.3009 17.52C22.5409 17.52 22.8449 17.408 23.2129 17.184C23.5969 16.944 23.9969 16.648 24.4129 16.296C24.8289 15.928 25.2289 15.552 25.6129 15.168C26.0129 14.768 26.3569 14.4 26.6449 14.064C26.7409 13.952 26.8369 13.896 26.9329 13.896C27.0289 13.896 27.0769 13.944 27.0769 14.04C27.0769 14.072 27.0689 14.12 27.0529 14.184C27.0369 14.248 26.9889 14.32 26.9089 14.4C26.6529 14.688 26.3249 15.048 25.9249 15.48C25.5249 15.896 25.0929 16.312 24.6289 16.728C24.1649 17.144 23.7169 17.488 23.2849 17.76C22.8529 18.032 22.4849 18.168 22.1809 18.168C21.8129 18.168 21.4929 18.072 21.2209 17.88C20.9489 17.672 20.8129 17.392 20.8129 17.04C20.8129 16.688 20.8689 16.336 20.9809 15.984C21.0929 15.616 21.1809 15.304 21.2449 15.048C20.4929 15.928 19.8289 16.6 19.2529 17.064C18.6929 17.528 18.2209 17.84 17.8369 18C17.4529 18.176 17.1489 18.264 16.9249 18.264ZM31.5362 18.528C31.0722 18.528 30.6082 18.48 30.1442 18.384C29.6962 18.288 29.2882 18.136 28.9202 17.928C28.8082 17.864 28.6402 17.76 28.4162 17.616C28.2082 17.472 27.9362 17.272 27.6002 17.016C27.3442 17.192 27.1042 17.352 26.8802 17.496C26.6562 17.624 26.4402 17.688 26.2322 17.688C25.8642 17.688 25.6802 17.488 25.6802 17.088C25.6802 16.96 25.7282 16.792 25.8242 16.584C25.9042 16.36 26.0002 16.248 26.1122 16.248C26.1922 16.248 26.2322 16.304 26.2322 16.416C26.2322 16.496 26.2242 16.56 26.2082 16.608C26.2082 16.624 26.2002 16.648 26.1842 16.68C26.1842 16.696 26.1842 16.712 26.1842 16.728C26.1842 16.888 26.2642 16.968 26.4242 16.968C26.6322 16.968 26.8642 16.872 27.1202 16.68L26.2082 15.984C26.1762 15.952 26.1602 15.912 26.1602 15.864C26.1602 15.752 26.2402 15.624 26.4002 15.48C26.5602 15.32 26.7042 15.24 26.8322 15.24C26.8802 15.24 27.2482 15.512 27.9362 16.056C28.5762 15.336 29.2402 14.624 29.9282 13.92C30.4402 13.376 30.8882 12.912 31.2722 12.528C31.6722 12.144 32.0162 11.848 32.3042 11.64C31.0402 11.256 30.1042 11.064 29.4962 11.064C29.1122 11.064 28.8002 11.152 28.5602 11.328C28.3202 11.488 28.2002 11.696 28.2002 11.952C28.2002 12.16 28.3122 12.352 28.5362 12.528C28.6642 12.624 28.7282 12.704 28.7282 12.768C28.7282 12.864 28.6882 12.912 28.6082 12.912C28.4482 12.912 28.2322 12.752 27.9602 12.432C27.7042 12.112 27.5762 11.784 27.5762 11.448C27.5762 11.112 27.6962 10.856 27.9362 10.68C28.1922 10.504 28.5042 10.384 28.8722 10.32C29.2402 10.256 29.6002 10.224 29.9522 10.224C30.4642 10.224 31.0242 10.32 31.6322 10.512C32.2402 10.704 32.8402 10.896 33.4322 11.088C33.6562 10.96 33.8962 10.896 34.1522 10.896C34.8242 10.896 35.1602 11.096 35.1602 11.496C35.1602 11.656 35.0562 11.808 34.8482 11.952C34.6562 12.08 34.4162 12.144 34.1282 12.144C33.8242 12.144 33.5522 12.088 33.3122 11.976C31.8082 12.904 30.1762 14.392 28.4162 16.44L29.2802 17.112C29.6482 17.384 30.0482 17.568 30.4802 17.664C30.9282 17.744 31.3682 17.784 31.8002 17.784C32.5042 17.784 33.1042 17.656 33.6002 17.4C34.0962 17.144 34.3442 16.76 34.3442 16.248C34.3442 16.04 34.3122 15.864 34.2482 15.72C34.2162 15.624 34.2002 15.568 34.2002 15.552C34.2002 15.44 34.2802 15.384 34.4402 15.384C34.5202 15.384 34.5762 15.424 34.6082 15.504C34.7362 15.792 34.8002 16.064 34.8002 16.32C34.8002 16.96 34.4962 17.488 33.8882 17.904C33.2962 18.32 32.5122 18.528 31.5362 18.528ZM41.6158 18.12C41.1358 18.12 40.7278 17.992 40.3918 17.736C40.0558 17.464 39.8638 17.136 39.8158 16.752C39.7518 16.24 39.8238 15.728 40.0318 15.216C40.2558 14.688 40.5518 14.184 40.9198 13.704C41.3038 13.224 41.7118 12.776 42.1438 12.36C43.8398 10.664 45.3678 9.816 46.7278 9.816C47.1918 9.816 47.5038 9.936 47.6638 10.176C47.7278 10.256 47.7998 10.44 47.8798 10.728C49.6718 7.816 50.9198 6.36 51.6238 6.36C51.7838 6.36 51.9518 6.4 52.1278 6.48C52.3038 6.56 52.3918 6.664 52.3918 6.792C52.3918 6.872 52.3518 6.976 52.2718 7.104C51.7918 7.696 51.3118 8.288 50.8318 8.88C50.3518 9.456 49.8798 10.04 49.4158 10.632C48.6318 11.624 47.9998 12.488 47.5198 13.224C47.0398 13.96 46.6958 14.584 46.4878 15.096C46.4238 15.256 46.3598 15.456 46.2958 15.696C46.2478 15.92 46.2238 16.152 46.2238 16.392C46.2238 16.696 46.2878 16.96 46.4158 17.184C46.5438 17.408 46.7758 17.52 47.1118 17.52C47.6398 17.52 48.2878 17.264 49.0558 16.752C49.8238 16.24 50.7198 15.4 51.7438 14.232C51.8078 14.168 51.8638 14.112 51.9118 14.064C51.9758 14.016 52.0398 13.984 52.1038 13.968C52.2478 13.936 52.3198 13.968 52.3198 14.064C52.3198 14.112 52.2718 14.2 52.1758 14.328C51.6798 14.92 51.1278 15.504 50.5198 16.08C49.9118 16.656 49.2878 17.136 48.6478 17.52C48.0238 17.888 47.4398 18.072 46.8958 18.072C46.3518 18.072 45.9678 17.888 45.7438 17.52C45.5198 17.152 45.4078 16.736 45.4078 16.272C45.4078 15.792 45.4958 15.352 45.6718 14.952L43.7278 16.896C43.2958 17.328 42.8958 17.64 42.5278 17.832C42.1758 18.024 41.8718 18.12 41.6158 18.12ZM41.3998 17.592C42.0878 17.592 43.2318 16.648 44.8318 14.76C44.9118 14.664 45.1918 14.312 45.6718 13.704C46.1518 13.08 46.8318 12.176 47.7118 10.992C47.5998 10.8 47.4078 10.704 47.1358 10.704C46.1438 10.704 44.8158 11.488 43.1518 13.056C41.5838 14.512 40.7998 15.736 40.7998 16.728C40.7998 17.304 40.9998 17.592 41.3998 17.592ZM52.8189 18.12C52.4349 18.12 52.0509 17.984 51.6669 17.712C51.2829 17.44 51.0669 17.12 51.0189 16.752C50.8589 15.52 51.6349 14.056 53.3469 12.36C55.0429 10.664 56.5709 9.816 57.9309 9.816C58.2989 9.816 58.5869 9.904 58.7949 10.08C58.9069 10.192 58.9869 10.344 59.0349 10.536C59.0989 10.728 59.1469 10.824 59.1789 10.824C59.2429 10.824 59.2989 10.816 59.3469 10.8C59.3949 10.768 59.4509 10.752 59.5149 10.752C59.7069 10.752 59.8749 10.824 60.0189 10.968C60.1629 11.112 60.2429 11.24 60.2589 11.352C60.2749 11.384 59.7629 12.176 58.7229 13.728C57.6829 15.248 57.2109 16.28 57.3069 16.824C57.3869 17.192 57.5629 17.376 57.8349 17.376C58.6669 17.376 60.1869 16 62.3949 13.248C62.4429 13.184 62.4909 13.152 62.5389 13.152C62.6189 13.152 62.6589 13.208 62.6589 13.32C62.6589 13.448 62.5869 13.608 62.4429 13.8C60.4109 16.536 58.8509 17.904 57.7629 17.904C57.6189 17.904 57.4829 17.88 57.3549 17.832C56.6509 17.56 56.2989 17.032 56.2989 16.248C56.2989 15.976 56.3309 15.704 56.3949 15.432L54.9069 16.872C54.4589 17.32 54.0509 17.64 53.6829 17.832C53.3309 18.024 53.0429 18.12 52.8189 18.12ZM52.6029 17.592C53.5309 17.592 54.7949 16.576 56.3949 14.544L58.9389 11.04C58.8109 10.816 58.6029 10.704 58.3149 10.704C57.3389 10.704 56.0189 11.488 54.3549 13.056C52.6269 14.656 51.8509 15.976 52.0269 17.016C52.1069 17.4 52.2989 17.592 52.6029 17.592ZM64.4674 22.536C63.7954 22.168 63.4594 21.472 63.4594 20.448C63.4594 19.344 64.3634 17.456 66.1714 14.784C67.8994 12.208 69.0994 10.816 69.7714 10.608C69.8354 10.592 69.8914 10.584 69.9394 10.584C69.9874 10.568 70.0354 10.56 70.0834 10.56C70.3554 10.56 70.4914 10.856 70.4914 11.448C70.6034 11.336 70.7954 11.232 71.0674 11.136C71.3554 11.024 71.6434 10.936 71.9314 10.872C72.2354 10.808 72.4594 10.768 72.6034 10.752C73.2594 10.72 73.8034 10.88 74.2354 11.232C74.6834 11.568 74.9074 12.016 74.9074 12.576C74.9074 13.872 74.1314 15.128 72.5794 16.344C71.1714 17.448 69.9234 18 68.8354 18C68.1154 18 67.6194 17.96 67.3474 17.88C66.9634 17.768 66.5714 17.472 66.1714 16.992C65.9954 17.136 65.8034 17.384 65.5954 17.736C65.3874 18.072 65.1954 18.44 65.0194 18.84C64.8274 19.256 64.6754 19.664 64.5634 20.064C64.4354 20.464 64.3714 20.8 64.3714 21.072C64.3714 21.344 64.4274 21.568 64.5394 21.744C64.6354 21.936 64.7314 22.112 64.8274 22.272C64.8274 22.288 64.8354 22.296 64.8514 22.296C64.8514 22.312 64.8514 22.32 64.8514 22.32C64.8514 22.4 64.8114 22.464 64.7314 22.512C64.6354 22.576 64.5474 22.584 64.4674 22.536ZM68.5234 17.328C69.4194 17.328 70.4514 16.872 71.6194 15.96C72.9954 14.872 73.6834 13.664 73.6834 12.336C73.6834 11.728 73.3074 11.424 72.5554 11.424C71.8674 11.424 71.2274 11.576 70.6354 11.88C70.4754 11.944 70.2114 12.152 69.8434 12.504C69.4914 12.856 69.0194 13.336 68.4274 13.944C67.1634 15.256 66.5314 16.096 66.5314 16.464C66.5314 16.752 66.7954 16.984 67.3234 17.16C67.6754 17.272 68.0754 17.328 68.5234 17.328ZM76.1303 18.312C75.6183 18.312 75.1543 18.152 74.7382 17.832C74.3223 17.496 74.1143 17.056 74.1143 16.512C74.1143 15.376 74.8103 14.08 76.2023 12.624C77.6263 11.152 78.8983 10.416 80.0183 10.416C80.3863 10.416 80.6823 10.52 80.9062 10.728C81.1463 10.92 81.2663 11.16 81.2663 11.448C81.2663 12.344 80.5543 13.224 79.1303 14.088C77.8663 14.856 76.8023 15.24 75.9383 15.24C75.8103 15.24 75.6983 15.224 75.6023 15.192C75.3623 15.624 75.2423 16.08 75.2423 16.56C75.2423 17.392 75.6343 17.808 76.4183 17.808C77.2183 17.808 78.2503 17.272 79.5143 16.2C80.4903 15.416 81.3223 14.584 82.0103 13.704C82.1543 13.512 82.2823 13.416 82.3943 13.416C82.4903 13.416 82.5383 13.464 82.5383 13.56C82.5383 13.656 82.4743 13.792 82.3463 13.968C81.8983 14.56 81.4183 15.104 80.9062 15.6C80.3943 16.096 79.8423 16.552 79.2503 16.968C78.0183 17.864 76.9783 18.312 76.1303 18.312ZM76.2743 14.712C76.8823 14.712 77.6743 14.408 78.6503 13.8C78.9703 13.576 79.2823 13.328 79.5863 13.056C79.9063 12.768 80.1623 12.48 80.3543 12.192C80.5623 11.904 80.6663 11.648 80.6663 11.424C80.6663 11.216 80.4983 11.112 80.1623 11.112C79.6823 11.112 79.0103 11.472 78.1463 12.192C77.7303 12.544 77.3303 12.928 76.9463 13.344C76.5623 13.76 76.2343 14.2 75.9623 14.664C76.0583 14.696 76.1623 14.712 76.2743 14.712ZM82.8943 18.048C82.4303 18.048 81.9983 17.936 81.5983 17.712C81.1983 17.472 80.9983 17.08 80.9983 16.536C80.9983 15.784 81.2623 14.888 81.7903 13.848C82.3343 12.808 82.9503 11.728 83.6383 10.608C85.5103 7.568 86.8383 6.048 87.6223 6.048C87.7823 6.048 87.9423 6.112 88.1023 6.24C88.2783 6.352 88.3743 6.48 88.3903 6.624L86.7103 8.88C86.0543 9.76 85.4623 10.576 84.9343 11.328C84.4063 12.064 83.9503 12.728 83.5663 13.32C83.3743 13.624 83.1583 13.968 82.9183 14.352C82.6783 14.736 82.4623 15.136 82.2703 15.552C82.0943 15.952 82.0063 16.36 82.0063 16.776C82.0063 16.968 82.0623 17.144 82.1743 17.304C82.2863 17.448 82.4863 17.52 82.7743 17.52C83.2863 17.52 83.9583 17.248 84.7903 16.704C85.6223 16.144 86.4463 15.376 87.2623 14.4C87.3423 14.304 87.4303 14.216 87.5263 14.136C87.6223 14.056 87.7023 14.016 87.7663 14.016C87.8463 14.016 87.8863 14.064 87.8863 14.16C87.8863 14.208 87.8303 14.304 87.7183 14.448C87.6223 14.576 87.5423 14.68 87.4783 14.76L86.9023 15.408C86.5823 15.76 86.1983 16.144 85.7503 16.56C85.3183 16.976 84.8543 17.328 84.3583 17.616C83.8783 17.904 83.3903 18.048 82.8943 18.048ZM88.1303 18.312C87.6183 18.312 87.1543 18.152 86.7382 17.832C86.3223 17.496 86.1143 17.056 86.1143 16.512C86.1143 15.376 86.8103 14.08 88.2023 12.624C89.6263 11.152 90.8983 10.416 92.0183 10.416C92.3863 10.416 92.6823 10.52 92.9062 10.728C93.1463 10.92 93.2663 11.16 93.2663 11.448C93.2663 12.344 92.5543 13.224 91.1303 14.088C89.8663 14.856 88.8023 15.24 87.9383 15.24C87.8103 15.24 87.6983 15.224 87.6023 15.192C87.3623 15.624 87.2423 16.08 87.2423 16.56C87.2423 17.392 87.6343 17.808 88.4183 17.808C89.2183 17.808 90.2503 17.272 91.5143 16.2C92.4903 15.416 93.3223 14.584 94.0103 13.704C94.1543 13.512 94.2823 13.416 94.3943 13.416C94.4903 13.416 94.5383 13.464 94.5383 13.56C94.5383 13.656 94.4743 13.792 94.3463 13.968C93.8983 14.56 93.4183 15.104 92.9062 15.6C92.3943 16.096 91.8423 16.552 91.2503 16.968C90.0183 17.864 88.9783 18.312 88.1303 18.312ZM88.2743 14.712C88.8823 14.712 89.6743 14.408 90.6503 13.8C90.9703 13.576 91.2823 13.328 91.5863 13.056C91.9063 12.768 92.1623 12.48 92.3543 12.192C92.5623 11.904 92.6663 11.648 92.6663 11.424C92.6663 11.216 92.4983 11.112 92.1623 11.112C91.6823 11.112 91.0103 11.472 90.1463 12.192C89.7303 12.544 89.3303 12.928 88.9463 13.344C88.5623 13.76 88.2343 14.2 87.9623 14.664C88.0583 14.696 88.1623 14.712 88.2743 14.712ZM10.2597 33.2C9.69969 33.2 9.18635 33.0667 8.71969 32.8C8.25302 32.5333 7.87635 32.1533 7.58969 31.66C7.30969 31.1667 7.16969 30.5767 7.16969 29.89C7.16969 29.21 7.30302 28.6167 7.56969 28.11C7.83635 27.5967 8.21302 27.2 8.69969 26.92C9.19302 26.6333 9.77302 26.49 10.4397 26.49C10.6797 26.49 10.9264 26.5133 11.1797 26.56C11.4397 26.6067 11.6797 26.6867 11.8997 26.8C12.1197 26.9067 12.2964 27.05 12.4297 27.23C12.5697 27.41 12.6397 27.6333 12.6397 27.9C12.6464 28.1867 12.5597 28.44 12.3797 28.66C12.1997 28.8733 11.9464 28.98 11.6197 28.98C11.4197 28.98 11.2764 28.9333 11.1897 28.84C11.1097 28.74 11.073 28.6667 11.0797 28.62C11.0797 28.6 11.1197 28.5667 11.1997 28.52C11.2864 28.4667 11.3697 28.39 11.4497 28.29C11.5364 28.1833 11.5797 28.0433 11.5797 27.87C11.5797 27.57 11.4797 27.3333 11.2797 27.16C11.0797 26.98 10.7964 26.89 10.4297 26.89C10.0297 26.89 9.66969 27.0033 9.34969 27.23C9.03635 27.4567 8.78969 27.79 8.60969 28.23C8.42969 28.6633 8.33969 29.1967 8.33969 29.83C8.33969 30.3633 8.43302 30.85 8.61969 31.29C8.81302 31.7233 9.07969 32.07 9.41969 32.33C9.76635 32.5833 10.1664 32.71 10.6197 32.71C10.9797 32.71 11.2864 32.6367 11.5397 32.49C11.7997 32.3367 12.033 32.0933 12.2397 31.76C12.2997 31.6467 12.4064 31.6367 12.5597 31.73C12.6197 31.77 12.6664 31.82 12.6997 31.88C12.733 31.9333 12.7264 31.99 12.6797 32.05C12.4264 32.37 12.1864 32.6133 11.9597 32.78C11.733 32.94 11.4864 33.05 11.2197 33.11C10.953 33.17 10.633 33.2 10.2597 33.2ZM13.4076 33.03C13.3609 33.03 13.3209 33.01 13.2876 32.97C13.2609 32.9233 13.2476 32.8767 13.2476 32.83C13.2542 32.73 13.2776 32.6767 13.3176 32.67C13.3642 32.6567 13.4176 32.65 13.4776 32.65C13.6642 32.65 13.7909 32.62 13.8576 32.56C13.9309 32.4933 13.9709 32.4067 13.9776 32.3C13.9909 32.1933 13.9976 32.0833 13.9976 31.97V27.09C13.9976 26.97 13.9909 26.86 13.9776 26.76C13.9709 26.6533 13.9342 26.57 13.8676 26.51C13.8009 26.4433 13.6742 26.41 13.4876 26.41C13.4276 26.41 13.3709 26.4033 13.3176 26.39C13.2709 26.37 13.2476 26.31 13.2476 26.21C13.2476 26.11 13.3009 26.05 13.4076 26.03C13.7142 25.9833 13.9476 25.9367 14.1076 25.89C14.2742 25.8433 14.4009 25.8033 14.4876 25.77C14.5742 25.7367 14.6509 25.7167 14.7176 25.71C14.7709 25.7033 14.8142 25.7133 14.8476 25.74C14.8876 25.7667 14.9076 25.82 14.9076 25.9V31.97C14.9076 32.0833 14.9109 32.1933 14.9176 32.3C14.9309 32.4067 14.9709 32.4933 15.0376 32.56C15.1109 32.62 15.2409 32.65 15.4276 32.65C15.4876 32.65 15.5376 32.6567 15.5776 32.67C15.6242 32.6767 15.6509 32.73 15.6576 32.83C15.6576 32.8767 15.6442 32.9233 15.6176 32.97C15.5909 33.01 15.5509 33.03 15.4976 33.03C15.3042 33.0167 15.1242 33.0067 14.9576 33C14.7976 33 14.6276 33 14.4476 33C14.2676 33 14.0976 33 13.9376 33C13.7776 33.0067 13.6009 33.0167 13.4076 33.03ZM16.3689 33.03C16.3222 33.03 16.2822 33.01 16.2489 32.97C16.2222 32.9233 16.2089 32.8767 16.2089 32.83C16.2222 32.73 16.2489 32.6767 16.2889 32.67C16.3289 32.6567 16.3822 32.65 16.4489 32.65C16.6356 32.65 16.7622 32.62 16.8289 32.56C16.8956 32.4933 16.9322 32.4067 16.9389 32.3C16.9522 32.1933 16.9589 32.0833 16.9589 31.97V29.68C16.9589 29.56 16.9522 29.45 16.9389 29.35C16.9322 29.2433 16.8956 29.16 16.8289 29.1C16.7622 29.0333 16.6356 29 16.4489 29C16.3889 29 16.3322 28.9933 16.2789 28.98C16.2322 28.96 16.2089 28.9 16.2089 28.8C16.2089 28.7 16.2622 28.64 16.3689 28.62C16.6756 28.5733 16.9089 28.5267 17.0689 28.48C17.2356 28.4333 17.3622 28.3933 17.4489 28.36C17.5356 28.3267 17.6122 28.3067 17.6789 28.3C17.7322 28.2933 17.7756 28.3033 17.8089 28.33C17.8489 28.3567 17.8689 28.41 17.8689 28.49V31.97C17.8689 32.0833 17.8722 32.1933 17.8789 32.3C17.8922 32.4067 17.9322 32.4933 17.9989 32.56C18.0722 32.62 18.2022 32.65 18.3889 32.65C18.4489 32.65 18.4989 32.6567 18.5389 32.67C18.5856 32.6767 18.6122 32.73 18.6189 32.83C18.6189 32.8767 18.6056 32.9233 18.5789 32.97C18.5522 33.01 18.5122 33.03 18.4589 33.03C18.2656 33.0167 18.0856 33.0067 17.9189 33C17.7589 33 17.5889 33 17.4089 33C17.2289 33 17.0589 33 16.8989 33C16.7389 33.0067 16.5622 33.0167 16.3689 33.03ZM17.0789 27.71C17.0322 27.6833 16.9989 27.64 16.9789 27.58C16.9589 27.5133 16.9689 27.4467 17.0089 27.38L17.7589 26.01C17.8122 25.9167 17.8889 25.85 17.9889 25.81C18.0889 25.7633 18.1956 25.77 18.3089 25.83C18.4222 25.89 18.4989 25.98 18.5389 26.1C18.5789 26.22 18.5556 26.33 18.4689 26.43L17.4489 27.62C17.3822 27.6933 17.3156 27.7333 17.2489 27.74C17.1822 27.7467 17.1256 27.7367 17.0789 27.71ZM19.2791 33.03C19.2324 33.03 19.1924 33.01 19.1591 32.97C19.1324 32.9233 19.1191 32.8767 19.1191 32.83C19.1324 32.73 19.1591 32.6767 19.1991 32.67C19.2391 32.6567 19.2924 32.65 19.3591 32.65C19.5457 32.65 19.6724 32.62 19.7391 32.56C19.8057 32.4933 19.8424 32.4067 19.8491 32.3C19.8624 32.1933 19.8691 32.0833 19.8691 31.97V29.68C19.8691 29.56 19.8624 29.45 19.8491 29.35C19.8424 29.2433 19.8057 29.16 19.7391 29.1C19.6724 29.0333 19.5457 29 19.3591 29C19.2991 29 19.2424 28.9933 19.1891 28.98C19.1424 28.96 19.1191 28.9 19.1191 28.8C19.1191 28.7 19.1724 28.64 19.2791 28.62C19.5857 28.5733 19.8191 28.5267 19.9791 28.48C20.1457 28.4333 20.2691 28.3933 20.3491 28.36C20.4357 28.3267 20.5124 28.3067 20.5791 28.3C20.6324 28.2933 20.6757 28.3033 20.7091 28.33C20.7491 28.3567 20.7691 28.41 20.7691 28.49V29.12H20.7991C20.9324 28.9933 21.0691 28.8733 21.2091 28.76C21.3491 28.64 21.5124 28.5433 21.6991 28.47C21.8924 28.39 22.1291 28.35 22.4091 28.35C22.8624 28.35 23.2224 28.4867 23.4891 28.76C23.7557 29.0333 23.8891 29.3933 23.8891 29.84V31.97C23.8891 32.0833 23.8924 32.1933 23.8991 32.3C23.9124 32.4067 23.9524 32.4933 24.0191 32.56C24.0924 32.62 24.2224 32.65 24.4091 32.65C24.4691 32.65 24.5191 32.6567 24.5591 32.67C24.6057 32.6767 24.6324 32.73 24.6391 32.83C24.6391 32.8767 24.6257 32.9233 24.5991 32.97C24.5724 33.01 24.5324 33.03 24.4791 33.03C24.2857 33.0167 24.1057 33.0067 23.9391 33C23.7791 33 23.6091 33 23.4291 33C23.2491 33 23.0791 33 22.9191 33C22.7591 33.0067 22.5824 33.0167 22.3891 33.03C22.3424 33.03 22.3024 33.01 22.2691 32.97C22.2424 32.9233 22.2291 32.8767 22.2291 32.83C22.2357 32.73 22.2591 32.6767 22.2991 32.67C22.3457 32.6567 22.3991 32.65 22.4591 32.65C22.6457 32.65 22.7724 32.62 22.8391 32.56C22.9124 32.4933 22.9524 32.4067 22.9591 32.3C22.9724 32.1933 22.9791 32.0833 22.9791 31.97V29.85C22.9791 29.63 22.9291 29.45 22.8291 29.31C22.7357 29.17 22.6157 29.0667 22.4691 29C22.3224 28.9333 22.1724 28.9 22.0191 28.9C21.7924 28.9 21.5924 28.9433 21.4191 29.03C21.2457 29.11 21.1057 29.2033 20.9991 29.31C20.8924 29.4167 20.8191 29.51 20.7791 29.59V31.97C20.7791 32.0833 20.7824 32.1933 20.7891 32.3C20.8024 32.4067 20.8424 32.4933 20.9091 32.56C20.9824 32.62 21.1124 32.65 21.2991 32.65C21.3591 32.65 21.4091 32.6567 21.4491 32.67C21.4957 32.6767 21.5224 32.73 21.5291 32.83C21.5291 32.8767 21.5157 32.9233 21.4891 32.97C21.4624 33.01 21.4224 33.03 21.3691 33.03C21.1757 33.0167 20.9957 33.0067 20.8291 33C20.6691 33 20.4991 33 20.3191 33C20.1391 33 19.9691 33 19.8091 33C19.6491 33.0067 19.4724 33.0167 19.2791 33.03ZM25.2654 33.03C25.2187 33.03 25.1787 33.01 25.1454 32.97C25.1187 32.9233 25.1054 32.8767 25.1054 32.83C25.1187 32.73 25.1454 32.6767 25.1854 32.67C25.2254 32.6567 25.2787 32.65 25.3454 32.65C25.5321 32.65 25.6587 32.62 25.7254 32.56C25.7921 32.4933 25.8287 32.4067 25.8354 32.3C25.8487 32.1933 25.8554 32.0833 25.8554 31.97V29.68C25.8554 29.56 25.8487 29.45 25.8354 29.35C25.8287 29.2433 25.7921 29.16 25.7254 29.1C25.6587 29.0333 25.5321 29 25.3454 29C25.2854 29 25.2287 28.9933 25.1754 28.98C25.1287 28.96 25.1054 28.9 25.1054 28.8C25.1054 28.7 25.1587 28.64 25.2654 28.62C25.5721 28.5733 25.8054 28.5267 25.9654 28.48C26.1321 28.4333 26.2587 28.3933 26.3454 28.36C26.4321 28.3267 26.5087 28.3067 26.5754 28.3C26.6287 28.2933 26.6721 28.3033 26.7054 28.33C26.7454 28.3567 26.7654 28.41 26.7654 28.49V31.97C26.7654 32.0833 26.7687 32.1933 26.7754 32.3C26.7887 32.4067 26.8287 32.4933 26.8954 32.56C26.9687 32.62 27.0987 32.65 27.2854 32.65C27.3454 32.65 27.3954 32.6567 27.4354 32.67C27.4821 32.6767 27.5087 32.73 27.5154 32.83C27.5154 32.8767 27.5021 32.9233 27.4754 32.97C27.4487 33.01 27.4087 33.03 27.3554 33.03C27.1621 33.0167 26.9821 33.0067 26.8154 33C26.6554 33 26.4854 33 26.3054 33C26.1254 33 25.9554 33 25.7954 33C25.6354 33.0067 25.4587 33.0167 25.2654 33.03ZM26.2554 27.19C26.0687 27.19 25.9121 27.1333 25.7854 27.02C25.6587 26.9 25.5954 26.7533 25.5954 26.58C25.5954 26.4267 25.6721 26.29 25.8254 26.17C25.9787 26.05 26.1521 25.99 26.3454 25.99C26.5121 25.99 26.6487 26.05 26.7554 26.17C26.8621 26.2833 26.9154 26.43 26.9154 26.61C26.9154 26.77 26.8521 26.9067 26.7254 27.02C26.5987 27.1333 26.4421 27.19 26.2554 27.19ZM30.256 33.12C29.5693 33.12 29.0327 32.9033 28.646 32.47C28.266 32.03 28.076 31.45 28.076 30.73C28.096 30.27 28.2093 29.8633 28.416 29.51C28.6293 29.1567 28.9093 28.88 29.256 28.68C29.6093 28.4733 29.9993 28.3633 30.426 28.35C30.6593 28.35 30.896 28.38 31.136 28.44C31.3827 28.4933 31.586 28.5967 31.746 28.75C31.9127 28.8967 31.996 29.11 31.996 29.39C31.996 29.5833 31.936 29.7633 31.816 29.93C31.696 30.09 31.5293 30.17 31.316 30.17C31.1693 30.17 31.056 30.1333 30.976 30.06C30.896 29.9867 30.856 29.9333 30.856 29.9C30.856 29.8867 30.8827 29.86 30.936 29.82C30.996 29.7733 31.0527 29.7133 31.106 29.64C31.1593 29.56 31.186 29.4633 31.186 29.35C31.186 29.1367 31.1093 28.98 30.956 28.88C30.8027 28.78 30.6293 28.7267 30.436 28.72C30.1427 28.72 29.906 28.78 29.726 28.9C29.5527 29.02 29.4193 29.18 29.326 29.38C29.2327 29.5733 29.1693 29.7867 29.136 30.02C29.1093 30.2533 29.096 30.48 29.096 30.7C29.096 31.0667 29.1527 31.3967 29.266 31.69C29.3793 31.9767 29.5393 32.2033 29.746 32.37C29.9527 32.5367 30.1993 32.62 30.486 32.62C30.7793 32.62 31.026 32.5567 31.226 32.43C31.426 32.3033 31.6093 32.1167 31.776 31.87C31.8227 31.8033 31.8927 31.7967 31.986 31.85C32.0327 31.8767 32.066 31.9133 32.086 31.96C32.106 32.0067 32.0993 32.0533 32.066 32.1C31.846 32.4133 31.5727 32.6633 31.246 32.85C30.9193 33.03 30.5893 33.12 30.256 33.12ZM34.0921 33.12C33.6854 33.12 33.3588 33.0033 33.1121 32.77C32.8721 32.5367 32.7521 32.2567 32.7521 31.93C32.7521 31.59 32.8388 31.3233 33.0121 31.13C33.1921 30.9367 33.4254 30.7933 33.7121 30.7C34.0054 30.6067 34.3221 30.5433 34.6621 30.51C35.0088 30.4767 35.3454 30.45 35.6721 30.43V29.64C35.6721 29.3267 35.5921 29.0833 35.4321 28.91C35.2788 28.73 35.0154 28.64 34.6421 28.64C34.4554 28.64 34.2788 28.7 34.1121 28.82C33.9521 28.94 33.8721 29.1133 33.8721 29.34C33.8721 29.4467 33.8988 29.5367 33.9521 29.61C34.0054 29.6833 34.0588 29.74 34.1121 29.78C34.1654 29.82 34.1921 29.8467 34.1921 29.86C34.1921 29.8867 34.1521 29.9367 34.0721 30.01C33.9988 30.0767 33.8954 30.11 33.7621 30.11C33.5554 30.11 33.3954 30.0333 33.2821 29.88C33.1688 29.7267 33.1121 29.5567 33.1121 29.37C33.1121 29.1167 33.1888 28.9167 33.3421 28.77C33.5021 28.6233 33.7054 28.5167 33.9521 28.45C34.1988 28.3833 34.4488 28.35 34.7021 28.35C35.0021 28.35 35.2921 28.3867 35.5721 28.46C35.8588 28.5333 36.0921 28.6733 36.2721 28.88C36.4588 29.0867 36.5521 29.3967 36.5521 29.81V32.14C36.5588 32.2067 36.5754 32.2867 36.6021 32.38C36.6288 32.4733 36.6788 32.5567 36.7521 32.63C36.8321 32.6967 36.9388 32.73 37.0721 32.73C37.1188 32.73 37.1554 32.74 37.1821 32.76C37.2088 32.7733 37.2221 32.8167 37.2221 32.89C37.2221 32.95 37.1888 32.9967 37.1221 33.03C37.0554 33.0633 36.9788 33.0867 36.8921 33.1C36.8054 33.1133 36.7321 33.12 36.6721 33.12C36.4254 33.12 36.2054 33.05 36.0121 32.91C35.8188 32.7633 35.7054 32.5633 35.6721 32.31C35.5254 32.5767 35.3054 32.78 35.0121 32.92C34.7254 33.0533 34.4188 33.12 34.0921 33.12ZM34.4121 32.58C34.6388 32.58 34.8454 32.5233 35.0321 32.41C35.2254 32.2967 35.3788 32.1433 35.4921 31.95C35.6121 31.75 35.6721 31.53 35.6721 31.29V30.72C34.9854 30.7667 34.4954 30.8767 34.2021 31.05C33.9088 31.2233 33.7621 31.5067 33.7621 31.9C33.7621 32.3533 33.9788 32.58 34.4121 32.58ZM42.1584 33.12C41.7851 33.12 41.4384 33.02 41.1184 32.82C40.7984 32.62 40.5418 32.34 40.3484 31.98C40.1551 31.62 40.0584 31.2033 40.0584 30.73C40.0584 30.3167 40.1551 29.93 40.3484 29.57C40.5484 29.2033 40.8218 28.91 41.1684 28.69C41.5218 28.4633 41.9218 28.35 42.3684 28.35C42.5818 28.35 42.7918 28.3767 42.9984 28.43C43.2051 28.4767 43.3818 28.5433 43.5284 28.63H43.5584V27.1C43.5584 26.98 43.5518 26.87 43.5384 26.77C43.5318 26.6633 43.4951 26.58 43.4284 26.52C43.3618 26.4533 43.2351 26.42 43.0484 26.42C42.9884 26.42 42.9318 26.4133 42.8784 26.4C42.8318 26.38 42.8084 26.32 42.8084 26.22C42.8084 26.12 42.8618 26.06 42.9684 26.04C43.2751 25.9933 43.5084 25.9467 43.6684 25.9C43.8351 25.8533 43.9618 25.8133 44.0484 25.78C44.1351 25.7467 44.2118 25.7267 44.2784 25.72C44.3318 25.7133 44.3751 25.7233 44.4084 25.75C44.4484 25.7767 44.4684 25.83 44.4684 25.91V32.08C44.4684 32.4733 44.7284 32.67 45.2484 32.67C45.3218 32.67 45.3684 32.69 45.3884 32.73C45.4084 32.7633 45.4184 32.7967 45.4184 32.83C45.4184 32.9233 45.3618 32.98 45.2484 33L43.6584 33.11C43.6118 33.11 43.5851 33.09 43.5784 33.05C43.5718 33.01 43.5684 32.9633 43.5684 32.91V32.51H43.5384C43.3718 32.6833 43.1618 32.83 42.9084 32.95C42.6618 33.0633 42.4118 33.12 42.1584 33.12ZM42.4984 32.62C42.7518 32.62 42.9618 32.57 43.1284 32.47C43.2951 32.3633 43.4384 32.2467 43.5584 32.12V29.48C43.5251 29.3667 43.4618 29.2533 43.3684 29.14C43.2818 29.02 43.1618 28.92 43.0084 28.84C42.8618 28.7533 42.6818 28.71 42.4684 28.71C42.0818 28.71 41.7551 28.8933 41.4884 29.26C41.2218 29.62 41.0884 30.1267 41.0884 30.78C41.0884 31.0933 41.1384 31.3933 41.2384 31.68C41.3451 31.96 41.5018 32.1867 41.7084 32.36C41.9151 32.5333 42.1784 32.62 42.4984 32.62ZM48.1992 33.12C47.6859 33.12 47.2526 33.01 46.8992 32.79C46.5526 32.57 46.2926 32.2767 46.1192 31.91C45.9459 31.5433 45.8592 31.1433 45.8592 30.71C45.8592 30.4167 45.9092 30.1333 46.0092 29.86C46.1159 29.58 46.2659 29.3267 46.4592 29.1C46.6526 28.8667 46.8859 28.6833 47.1592 28.55C47.4326 28.4167 47.7426 28.35 48.0892 28.35C48.7026 28.35 49.1626 28.51 49.4692 28.83C49.7826 29.1433 49.9626 29.5433 50.0092 30.03C50.0092 30.2633 49.9426 30.4167 49.8092 30.49C49.6826 30.5633 49.5159 30.6 49.3092 30.6H46.8792C46.8792 30.9867 46.9326 31.3333 47.0392 31.64C47.1459 31.94 47.3126 32.18 47.5392 32.36C47.7726 32.5333 48.0792 32.62 48.4592 32.62C48.7392 32.62 48.9792 32.56 49.1792 32.44C49.3792 32.32 49.5726 32.11 49.7592 31.81C49.8126 31.7433 49.8859 31.74 49.9792 31.8C50.0326 31.8267 50.0659 31.87 50.0792 31.93C50.0926 31.9833 50.0859 32.03 50.0592 32.07C49.8526 32.3967 49.5926 32.6533 49.2792 32.84C48.9659 33.0267 48.6059 33.12 48.1992 33.12ZM46.8792 30.22H48.5092C48.6692 30.22 48.7959 30.19 48.8892 30.13C48.9892 30.0633 49.0426 29.9533 49.0492 29.8C49.0492 29.5133 48.9692 29.26 48.8092 29.04C48.6559 28.8133 48.4159 28.7 48.0892 28.7C47.7559 28.7 47.4759 28.8333 47.2492 29.1C47.0292 29.3667 46.9059 29.74 46.8792 30.22ZM53.2953 33.03C53.2353 33.03 53.192 33.0067 53.1653 32.96C53.1386 32.9133 53.1253 32.8633 53.1253 32.81C53.132 32.6967 53.1586 32.6333 53.2053 32.62C53.252 32.6067 53.3086 32.6 53.3753 32.6C53.5886 32.6 53.7386 32.5633 53.8253 32.49C53.912 32.41 53.9653 32.3133 53.9853 32.2C54.012 32.08 54.0253 31.9567 54.0253 31.83V27.86C54.0253 27.7333 54.012 27.6133 53.9853 27.5C53.9653 27.38 53.912 27.2833 53.8253 27.21C53.7386 27.13 53.5886 27.09 53.3753 27.09C53.3086 27.09 53.252 27.0833 53.2053 27.07C53.1586 27.0567 53.132 26.9933 53.1253 26.88C53.1253 26.8267 53.1386 26.7767 53.1653 26.73C53.192 26.6833 53.2353 26.66 53.2953 26.66C53.5153 26.6667 53.7186 26.6733 53.9053 26.68C54.092 26.6867 54.2853 26.69 54.4853 26.69H57.6253C57.6986 26.69 57.7586 26.7067 57.8053 26.74C57.8586 26.7733 57.8853 26.8367 57.8853 26.93L57.9153 28.33C57.9153 28.3967 57.882 28.4467 57.8153 28.48C57.7553 28.5133 57.6986 28.53 57.6453 28.53C57.572 28.53 57.5053 28.5167 57.4453 28.49C57.3853 28.4567 57.3486 28.41 57.3353 28.35C57.2886 28.05 57.232 27.81 57.1653 27.63C57.1053 27.4433 57.012 27.31 56.8853 27.23C56.7653 27.1433 56.5886 27.0967 56.3553 27.09H55.0153V29.63H56.8253C56.8786 29.6367 56.9153 29.6633 56.9353 29.71C56.962 29.7567 56.9753 29.8067 56.9753 29.86C56.9753 29.9067 56.962 29.9533 56.9353 30C56.9153 30.04 56.8786 30.06 56.8253 30.06H55.0153V31.95C55.022 32.0367 55.0353 32.1333 55.0553 32.24C55.0753 32.34 55.132 32.4267 55.2253 32.5C55.3253 32.5733 55.4886 32.6067 55.7153 32.6H56.6353C56.8686 32.5933 57.0453 32.5567 57.1653 32.49C57.292 32.4167 57.392 32.2967 57.4653 32.13C57.5386 31.9633 57.6186 31.7333 57.7053 31.44C57.732 31.3733 57.7753 31.33 57.8353 31.31C57.902 31.29 57.972 31.2867 58.0453 31.3C58.0986 31.3067 58.152 31.33 58.2053 31.37C58.2653 31.41 58.292 31.4633 58.2853 31.53L58.0853 32.79C58.0653 32.8833 58.032 32.9433 57.9853 32.97C57.9453 32.99 57.882 33 57.7953 33H54.4953C54.2953 33 54.0986 33 53.9053 33C53.7186 33.0067 53.5153 33.0167 53.2953 33.03ZM60.8128 33.12C60.2995 33.12 59.8695 33.03 59.5228 32.85C59.1828 32.6633 59.0128 32.3967 59.0128 32.05C59.0128 31.8567 59.0695 31.7 59.1828 31.58C59.3028 31.46 59.4561 31.4 59.6428 31.4C59.7628 31.4 59.8595 31.4333 59.9328 31.5C60.0128 31.56 60.0528 31.6033 60.0528 31.63C60.0528 31.65 60.0128 31.6967 59.9328 31.77C59.8595 31.8367 59.8228 31.9467 59.8228 32.1C59.8228 32.2867 59.9095 32.4433 60.0828 32.57C60.2628 32.69 60.5328 32.75 60.8928 32.75C61.2061 32.75 61.4495 32.6833 61.6228 32.55C61.8028 32.41 61.8928 32.2167 61.8928 31.97C61.8928 31.77 61.8261 31.6167 61.6928 31.51C61.5661 31.3967 61.3995 31.3067 61.1928 31.24C60.9928 31.1733 60.7761 31.1067 60.5428 31.04C60.3161 30.9733 60.0995 30.89 59.8928 30.79C59.6861 30.69 59.5161 30.5533 59.3828 30.38C59.2561 30.2 59.1928 29.9633 59.1928 29.67C59.1928 29.37 59.2828 29.1233 59.4628 28.93C59.6428 28.7367 59.8728 28.5933 60.1528 28.5C60.4328 28.4 60.7161 28.35 61.0028 28.35C61.2495 28.35 61.4828 28.3867 61.7028 28.46C61.9228 28.5267 62.1028 28.63 62.2428 28.77C62.3895 28.91 62.4628 29.0867 62.4628 29.3C62.4628 29.4667 62.4095 29.6167 62.3028 29.75C62.1961 29.8833 62.0495 29.95 61.8628 29.95C61.7428 29.95 61.6428 29.92 61.5628 29.86C61.4895 29.7933 61.4528 29.7467 61.4528 29.72C61.4528 29.7067 61.4761 29.6833 61.5228 29.65C61.5761 29.61 61.6261 29.56 61.6728 29.5C61.7195 29.4333 61.7428 29.35 61.7428 29.25C61.7295 29.0567 61.6361 28.9133 61.4628 28.82C61.2895 28.7267 61.0961 28.68 60.8828 28.68C60.6495 28.68 60.4328 28.7367 60.2328 28.85C60.0328 28.9633 59.9328 29.1267 59.9328 29.34C59.9328 29.5333 59.9728 29.6833 60.0528 29.79C60.1395 29.8967 60.2728 29.99 60.4528 30.07C60.6395 30.1433 60.8795 30.2267 61.1728 30.32C61.4661 30.4133 61.7228 30.51 61.9428 30.61C62.1695 30.71 62.3428 30.8433 62.4628 31.01C62.5895 31.17 62.6528 31.39 62.6528 31.67C62.6528 31.95 62.5728 32.2 62.4128 32.42C62.2528 32.64 62.0328 32.8133 61.7528 32.94C61.4795 33.06 61.1661 33.12 60.8128 33.12ZM65.2264 33.17C65.0264 33.17 64.8364 33.12 64.6564 33.02C64.4764 32.92 64.3264 32.7667 64.2064 32.56C64.0931 32.3533 64.0364 32.0933 64.0364 31.78V28.84L63.4564 28.86C63.4097 28.86 63.3731 28.8433 63.3464 28.81C63.3264 28.77 63.3164 28.7267 63.3164 28.68C63.3164 28.5467 63.3631 28.47 63.4564 28.45C63.7031 28.4033 63.8897 28.3267 64.0164 28.22C64.1431 28.1067 64.2397 27.9733 64.3064 27.82C64.3797 27.6667 64.4464 27.5 64.5064 27.32C64.5264 27.2667 64.5564 27.2333 64.5964 27.22C64.6364 27.2 64.6797 27.19 64.7264 27.19C64.7664 27.19 64.8097 27.2 64.8564 27.22C64.9097 27.24 64.9364 27.2767 64.9364 27.33L64.8664 28.47L66.0364 28.4C66.0964 28.3933 66.1364 28.41 66.1564 28.45C66.1764 28.49 66.1864 28.5367 66.1864 28.59C66.1864 28.6567 66.1731 28.7233 66.1464 28.79C66.1264 28.8567 66.0997 28.89 66.0664 28.89L64.9464 28.86V31.9C64.9464 32.0933 64.9864 32.27 65.0664 32.43C65.1531 32.59 65.3064 32.67 65.5264 32.67C65.5997 32.67 65.6831 32.6633 65.7764 32.65C65.8697 32.6367 65.9697 32.6067 66.0764 32.56C66.1031 32.5467 66.1297 32.5367 66.1564 32.53C66.1831 32.5167 66.2097 32.51 66.2364 32.51C66.2897 32.51 66.3297 32.5333 66.3564 32.58C66.3831 32.62 66.4064 32.6633 66.4264 32.71C66.4464 32.77 66.4297 32.8167 66.3764 32.85C66.1697 32.9833 65.9797 33.07 65.8064 33.11C65.6331 33.15 65.4397 33.17 65.2264 33.17ZM69.6055 33.12C69.0921 33.12 68.6588 33.01 68.3055 32.79C67.9588 32.57 67.6988 32.2767 67.5255 31.91C67.3521 31.5433 67.2655 31.1433 67.2655 30.71C67.2655 30.4167 67.3155 30.1333 67.4155 29.86C67.5221 29.58 67.6721 29.3267 67.8655 29.1C68.0588 28.8667 68.2921 28.6833 68.5655 28.55C68.8388 28.4167 69.1488 28.35 69.4955 28.35C70.1088 28.35 70.5688 28.51 70.8755 28.83C71.1888 29.1433 71.3688 29.5433 71.4155 30.03C71.4155 30.2633 71.3488 30.4167 71.2155 30.49C71.0888 30.5633 70.9221 30.6 70.7155 30.6H68.2855C68.2855 30.9867 68.3388 31.3333 68.4455 31.64C68.5521 31.94 68.7188 32.18 68.9455 32.36C69.1788 32.5333 69.4855 32.62 69.8655 32.62C70.1455 32.62 70.3855 32.56 70.5855 32.44C70.7855 32.32 70.9788 32.11 71.1655 31.81C71.2188 31.7433 71.2921 31.74 71.3855 31.8C71.4388 31.8267 71.4721 31.87 71.4855 31.93C71.4988 31.9833 71.4921 32.03 71.4655 32.07C71.2588 32.3967 70.9988 32.6533 70.6855 32.84C70.3721 33.0267 70.0121 33.12 69.6055 33.12ZM68.2855 30.22H69.9155C70.0755 30.22 70.2021 30.19 70.2955 30.13C70.3955 30.0633 70.4488 29.9533 70.4555 29.8C70.4555 29.5133 70.3755 29.26 70.2155 29.04C70.0621 28.8133 69.8221 28.7 69.4955 28.7C69.1621 28.7 68.8821 28.8333 68.6555 29.1C68.4355 29.3667 68.3121 29.74 68.2855 30.22ZM69.1955 27.71C69.1488 27.6833 69.1155 27.64 69.0955 27.58C69.0755 27.5133 69.0855 27.4467 69.1255 27.38L69.8755 26.01C69.9288 25.9167 70.0055 25.85 70.1055 25.81C70.2055 25.7633 70.3121 25.77 70.4255 25.83C70.5388 25.89 70.6155 25.98 70.6555 26.1C70.6955 26.22 70.6721 26.33 70.5855 26.43L69.5655 27.62C69.4988 27.6933 69.4321 27.7333 69.3655 27.74C69.2988 27.7467 69.2421 27.7367 69.1955 27.71ZM74.035 33.17C73.835 33.17 73.645 33.12 73.465 33.02C73.285 32.92 73.135 32.7667 73.015 32.56C72.9017 32.3533 72.845 32.0933 72.845 31.78V28.84L72.265 28.86C72.2183 28.86 72.1817 28.8433 72.155 28.81C72.135 28.77 72.125 28.7267 72.125 28.68C72.125 28.5467 72.1717 28.47 72.265 28.45C72.5117 28.4033 72.6983 28.3267 72.825 28.22C72.9517 28.1067 73.0483 27.9733 73.115 27.82C73.1883 27.6667 73.255 27.5 73.315 27.32C73.335 27.2667 73.365 27.2333 73.405 27.22C73.445 27.2 73.4883 27.19 73.535 27.19C73.575 27.19 73.6183 27.2 73.665 27.22C73.7183 27.24 73.745 27.2767 73.745 27.33L73.675 28.47L74.845 28.4C74.905 28.3933 74.945 28.41 74.965 28.45C74.985 28.49 74.995 28.5367 74.995 28.59C74.995 28.6567 74.9817 28.7233 74.955 28.79C74.935 28.8567 74.9083 28.89 74.875 28.89L73.755 28.86V31.9C73.755 32.0933 73.795 32.27 73.875 32.43C73.9617 32.59 74.115 32.67 74.335 32.67C74.4083 32.67 74.4917 32.6633 74.585 32.65C74.6783 32.6367 74.7783 32.6067 74.885 32.56C74.9117 32.5467 74.9383 32.5367 74.965 32.53C74.9917 32.5167 75.0183 32.51 75.045 32.51C75.0983 32.51 75.1383 32.5333 75.165 32.58C75.1917 32.62 75.215 32.6633 75.235 32.71C75.255 32.77 75.2383 32.8167 75.185 32.85C74.9783 32.9833 74.7883 33.07 74.615 33.11C74.4417 33.15 74.2483 33.17 74.035 33.17ZM76.1541 33.03C76.1074 33.03 76.0674 33.01 76.0341 32.97C76.0074 32.9233 75.9941 32.8767 75.9941 32.83C76.0074 32.73 76.0341 32.6767 76.0741 32.67C76.1141 32.6567 76.1674 32.65 76.2341 32.65C76.4207 32.65 76.5474 32.62 76.6141 32.56C76.6807 32.4933 76.7174 32.4067 76.7241 32.3C76.7374 32.1933 76.7441 32.0833 76.7441 31.97V29.68C76.7441 29.56 76.7374 29.45 76.7241 29.35C76.7174 29.2433 76.6807 29.16 76.6141 29.1C76.5474 29.0333 76.4207 29 76.2341 29C76.1741 29 76.1174 28.9933 76.0641 28.98C76.0174 28.96 75.9941 28.9 75.9941 28.8C75.9941 28.7 76.0474 28.64 76.1541 28.62C76.4607 28.5733 76.6941 28.5267 76.8541 28.48C77.0207 28.4333 77.1474 28.3933 77.2341 28.36C77.3207 28.3267 77.3974 28.3067 77.4641 28.3C77.5174 28.2933 77.5607 28.3033 77.5941 28.33C77.6341 28.3567 77.6541 28.41 77.6541 28.49V31.97C77.6541 32.0833 77.6574 32.1933 77.6641 32.3C77.6774 32.4067 77.7174 32.4933 77.7841 32.56C77.8574 32.62 77.9874 32.65 78.1741 32.65C78.2341 32.65 78.2841 32.6567 78.3241 32.67C78.3707 32.6767 78.3974 32.73 78.4041 32.83C78.4041 32.8767 78.3907 32.9233 78.3641 32.97C78.3374 33.01 78.2974 33.03 78.2441 33.03C78.0507 33.0167 77.8707 33.0067 77.7041 33C77.5441 33 77.3741 33 77.1941 33C77.0141 33 76.8441 33 76.6841 33C76.5241 33.0067 76.3474 33.0167 76.1541 33.03ZM77.1441 27.19C76.9574 27.19 76.8007 27.1333 76.6741 27.02C76.5474 26.9 76.4841 26.7533 76.4841 26.58C76.4841 26.4267 76.5607 26.29 76.7141 26.17C76.8674 26.05 77.0407 25.99 77.2341 25.99C77.4007 25.99 77.5374 26.05 77.6441 26.17C77.7507 26.2833 77.8041 26.43 77.8041 26.61C77.8041 26.77 77.7407 26.9067 77.6141 27.02C77.4874 27.1333 77.3307 27.19 77.1441 27.19ZM81.1447 33.12C80.458 33.12 79.9214 32.9033 79.5347 32.47C79.1547 32.03 78.9647 31.45 78.9647 30.73C78.9847 30.27 79.098 29.8633 79.3047 29.51C79.518 29.1567 79.798 28.88 80.1447 28.68C80.498 28.4733 80.888 28.3633 81.3147 28.35C81.548 28.35 81.7847 28.38 82.0247 28.44C82.2714 28.4933 82.4747 28.5967 82.6347 28.75C82.8014 28.8967 82.8847 29.11 82.8847 29.39C82.8847 29.5833 82.8247 29.7633 82.7047 29.93C82.5847 30.09 82.418 30.17 82.2047 30.17C82.058 30.17 81.9447 30.1333 81.8647 30.06C81.7847 29.9867 81.7447 29.9333 81.7447 29.9C81.7447 29.8867 81.7714 29.86 81.8247 29.82C81.8847 29.7733 81.9414 29.7133 81.9947 29.64C82.048 29.56 82.0747 29.4633 82.0747 29.35C82.0747 29.1367 81.998 28.98 81.8447 28.88C81.6914 28.78 81.518 28.7267 81.3247 28.72C81.0314 28.72 80.7947 28.78 80.6147 28.9C80.4414 29.02 80.308 29.18 80.2147 29.38C80.1214 29.5733 80.058 29.7867 80.0247 30.02C79.998 30.2533 79.9847 30.48 79.9847 30.7C79.9847 31.0667 80.0414 31.3967 80.1547 31.69C80.268 31.9767 80.428 32.2033 80.6347 32.37C80.8414 32.5367 81.088 32.62 81.3747 32.62C81.668 32.62 81.9147 32.5567 82.1147 32.43C82.3147 32.3033 82.498 32.1167 82.6647 31.87C82.7114 31.8033 82.7814 31.7967 82.8747 31.85C82.9214 31.8767 82.9547 31.9133 82.9747 31.96C82.9947 32.0067 82.988 32.0533 82.9547 32.1C82.7347 32.4133 82.4614 32.6633 82.1347 32.85C81.808 33.03 81.478 33.12 81.1447 33.12ZM84.9808 33.12C84.5741 33.12 84.2474 33.0033 84.0008 32.77C83.7608 32.5367 83.6408 32.2567 83.6408 31.93C83.6408 31.59 83.7274 31.3233 83.9008 31.13C84.0808 30.9367 84.3141 30.7933 84.6008 30.7C84.8941 30.6067 85.2108 30.5433 85.5508 30.51C85.8974 30.4767 86.2341 30.45 86.5608 30.43V29.64C86.5608 29.3267 86.4808 29.0833 86.3208 28.91C86.1674 28.73 85.9041 28.64 85.5308 28.64C85.3441 28.64 85.1674 28.7 85.0008 28.82C84.8408 28.94 84.7608 29.1133 84.7608 29.34C84.7608 29.4467 84.7874 29.5367 84.8408 29.61C84.8941 29.6833 84.9474 29.74 85.0008 29.78C85.0541 29.82 85.0808 29.8467 85.0808 29.86C85.0808 29.8867 85.0408 29.9367 84.9608 30.01C84.8874 30.0767 84.7841 30.11 84.6508 30.11C84.4441 30.11 84.2841 30.0333 84.1708 29.88C84.0574 29.7267 84.0008 29.5567 84.0008 29.37C84.0008 29.1167 84.0774 28.9167 84.2308 28.77C84.3908 28.6233 84.5941 28.5167 84.8408 28.45C85.0874 28.3833 85.3374 28.35 85.5908 28.35C85.8908 28.35 86.1808 28.3867 86.4608 28.46C86.7474 28.5333 86.9808 28.6733 87.1608 28.88C87.3474 29.0867 87.4408 29.3967 87.4408 29.81V32.14C87.4474 32.2067 87.4641 32.2867 87.4908 32.38C87.5174 32.4733 87.5674 32.5567 87.6408 32.63C87.7208 32.6967 87.8274 32.73 87.9608 32.73C88.0074 32.73 88.0441 32.74 88.0708 32.76C88.0974 32.7733 88.1108 32.8167 88.1108 32.89C88.1108 32.95 88.0774 32.9967 88.0108 33.03C87.9441 33.0633 87.8674 33.0867 87.7808 33.1C87.6941 33.1133 87.6208 33.12 87.5608 33.12C87.3141 33.12 87.0941 33.05 86.9008 32.91C86.7074 32.7633 86.5941 32.5633 86.5608 32.31C86.4141 32.5767 86.1941 32.78 85.9008 32.92C85.6141 33.0533 85.3074 33.12 84.9808 33.12ZM85.3008 32.58C85.5274 32.58 85.7341 32.5233 85.9208 32.41C86.1141 32.2967 86.2674 32.1433 86.3808 31.95C86.5008 31.75 86.5608 31.53 86.5608 31.29V30.72C85.8741 30.7667 85.3841 30.8767 85.0908 31.05C84.7974 31.2233 84.6508 31.5067 84.6508 31.9C84.6508 32.3533 84.8674 32.58 85.3008 32.58Z" fill="white"/>
</svg>
